<mxfile host="Electron" agent="Mozilla/5.0 (X11; Linux x86_64) AppleWebKit/537.36 (KHTML, like Gecko) draw.io/26.0.4 Chrome/128.0.6613.186 Electron/32.2.5 Safari/537.36" version="26.0.4">
  <diagram name="uc1" id="xK43Y889W-y6p6fC-49S">
    <mxGraphModel dx="1388" dy="838" grid="1" gridSize="10" guides="1" tooltips="1" connect="1" arrows="1" fold="1" page="1" pageScale="1" pageWidth="1654" pageHeight="1169" math="0" shadow="0">
      <root>
        <mxCell id="0" />
        <mxCell id="1" style="" parent="0" />
        <mxCell id="rUusRCUM9nWNscyzMmrL-10" value="Save Strategy" style="html=1;align=left;spacingLeft=2;endArrow=block;rounded=0;edgeStyle=orthogonalEdgeStyle;curved=0;rounded=0;" edge="1" parent="1">
          <mxGeometry relative="1" as="geometry">
            <mxPoint x="770" y="610" as="sourcePoint" />
            <Array as="points">
              <mxPoint x="800" y="640" />
            </Array>
            <mxPoint x="775" y="640" as="targetPoint" />
          </mxGeometry>
        </mxCell>
        <mxCell id="rUusRCUM9nWNscyzMmrL-8" value="Strategy Instance" style="html=1;verticalAlign=bottom;endArrow=open;dashed=1;endSize=8;curved=0;rounded=0;exitX=0.5;exitY=0.669;exitDx=0;exitDy=0;exitPerimeter=0;" edge="1" parent="1">
          <mxGeometry relative="1" as="geometry">
            <mxPoint x="775" y="589.1600000000001" as="targetPoint" />
            <mxPoint x="890" y="589.1600000000001" as="sourcePoint" />
          </mxGeometry>
        </mxCell>
        <mxCell id="rUusRCUM9nWNscyzMmrL-7" value="Iterate and find Strategy for given url" style="html=1;align=left;spacingLeft=2;endArrow=block;rounded=0;edgeStyle=orthogonalEdgeStyle;curved=0;rounded=0;" edge="1" parent="1">
          <mxGeometry relative="1" as="geometry">
            <mxPoint x="890" y="540" as="sourcePoint" />
            <Array as="points">
              <mxPoint x="920" y="570" />
            </Array>
            <mxPoint x="895" y="570" as="targetPoint" />
          </mxGeometry>
        </mxCell>
        <mxCell id="rUusRCUM9nWNscyzMmrL-6" value="Load all Strategies in classpath" style="html=1;align=left;spacingLeft=2;endArrow=block;rounded=0;edgeStyle=orthogonalEdgeStyle;curved=0;rounded=0;" edge="1" parent="1">
          <mxGeometry relative="1" as="geometry">
            <mxPoint x="890" y="490" as="sourcePoint" />
            <Array as="points">
              <mxPoint x="920" y="520" />
            </Array>
            <mxPoint x="895" y="520" as="targetPoint" />
          </mxGeometry>
        </mxCell>
        <mxCell id="QTBJoDsRQrFREH0yK5H--1" value=":LMS" style="shape=umlLifeline;perimeter=lifelinePerimeter;whiteSpace=wrap;html=1;container=1;dropTarget=0;collapsible=0;recursiveResize=0;outlineConnect=0;portConstraint=eastwest;newEdgeStyle={&quot;curved&quot;:0,&quot;rounded&quot;:0};" parent="1" vertex="1">
          <mxGeometry x="160" y="160" width="100" height="640" as="geometry" />
        </mxCell>
        <mxCell id="QTBJoDsRQrFREH0yK5H--8" value="" style="html=1;points=[[0,0,0,0,5],[0,1,0,0,-5],[1,0,0,0,5],[1,1,0,0,-5]];perimeter=orthogonalPerimeter;outlineConnect=0;targetShapes=umlLifeline;portConstraint=eastwest;newEdgeStyle={&quot;curved&quot;:0,&quot;rounded&quot;:0};" parent="QTBJoDsRQrFREH0yK5H--1" vertex="1">
          <mxGeometry x="45" y="70" width="10" height="120" as="geometry" />
        </mxCell>
        <mxCell id="QTBJoDsRQrFREH0yK5H--4" value="Active Agent" style="shape=umlLifeline;perimeter=lifelinePerimeter;whiteSpace=wrap;html=1;container=1;dropTarget=0;collapsible=0;recursiveResize=0;outlineConnect=0;portConstraint=eastwest;newEdgeStyle={&quot;curved&quot;:0,&quot;rounded&quot;:0};participant=umlActor;size=40;movableLabel=1;" parent="1" vertex="1">
          <mxGeometry x="50" y="160" width="20" height="640" as="geometry">
            <mxPoint y="-40" as="offset" />
          </mxGeometry>
        </mxCell>
        <mxCell id="QTBJoDsRQrFREH0yK5H--11" value="" style="html=1;points=[[0,0,0,0,5],[0,1,0,0,-5],[1,0,0,0,5],[1,1,0,0,-5]];perimeter=orthogonalPerimeter;outlineConnect=0;targetShapes=umlLifeline;portConstraint=eastwest;newEdgeStyle={&quot;curved&quot;:0,&quot;rounded&quot;:0};" parent="QTBJoDsRQrFREH0yK5H--4" vertex="1">
          <mxGeometry x="5" y="60" width="10" height="560" as="geometry" />
        </mxCell>
        <mxCell id="QTBJoDsRQrFREH0yK5H--5" value=":Activity Controller" style="shape=umlLifeline;perimeter=lifelinePerimeter;whiteSpace=wrap;html=1;container=1;dropTarget=0;collapsible=0;recursiveResize=0;outlineConnect=0;portConstraint=eastwest;newEdgeStyle={&quot;curved&quot;:0,&quot;rounded&quot;:0};" parent="1" vertex="1">
          <mxGeometry x="480" y="160" width="100" height="640" as="geometry" />
        </mxCell>
        <mxCell id="QTBJoDsRQrFREH0yK5H--17" value="" style="html=1;points=[[0,0,0,0,5],[0,1,0,0,-5],[1,0,0,0,5],[1,1,0,0,-5]];perimeter=orthogonalPerimeter;outlineConnect=0;targetShapes=umlLifeline;portConstraint=eastwest;newEdgeStyle={&quot;curved&quot;:0,&quot;rounded&quot;:0};" parent="QTBJoDsRQrFREH0yK5H--5" vertex="1">
          <mxGeometry x="45" y="92" width="10" height="78" as="geometry" />
        </mxCell>
        <mxCell id="QTBJoDsRQrFREH0yK5H--29" value="" style="html=1;points=[[0,0,0,0,5],[0,1,0,0,-5],[1,0,0,0,5],[1,1,0,0,-5]];perimeter=orthogonalPerimeter;outlineConnect=0;targetShapes=umlLifeline;portConstraint=eastwest;newEdgeStyle={&quot;curved&quot;:0,&quot;rounded&quot;:0};" parent="QTBJoDsRQrFREH0yK5H--5" vertex="1">
          <mxGeometry x="45" y="210" width="10" height="30" as="geometry" />
        </mxCell>
        <mxCell id="QTBJoDsRQrFREH0yK5H--32" value="" style="html=1;points=[[0,0,0,0,5],[0,1,0,0,-5],[1,0,0,0,5],[1,1,0,0,-5]];perimeter=orthogonalPerimeter;outlineConnect=0;targetShapes=umlLifeline;portConstraint=eastwest;newEdgeStyle={&quot;curved&quot;:0,&quot;rounded&quot;:0};" parent="QTBJoDsRQrFREH0yK5H--5" vertex="1">
          <mxGeometry x="45" y="259" width="10" height="361" as="geometry" />
        </mxCell>
        <mxCell id="QTBJoDsRQrFREH0yK5H--6" value=":Activity Service" style="shape=umlLifeline;perimeter=lifelinePerimeter;whiteSpace=wrap;html=1;container=1;dropTarget=0;collapsible=0;recursiveResize=0;outlineConnect=0;portConstraint=eastwest;newEdgeStyle={&quot;curved&quot;:0,&quot;rounded&quot;:0};" parent="1" vertex="1">
          <mxGeometry x="600" y="160" width="100" height="640" as="geometry" />
        </mxCell>
        <mxCell id="QTBJoDsRQrFREH0yK5H--26" value="" style="html=1;points=[[0,0,0,0,5],[0,1,0,0,-5],[1,0,0,0,5],[1,1,0,0,-5]];perimeter=orthogonalPerimeter;outlineConnect=0;targetShapes=umlLifeline;portConstraint=eastwest;newEdgeStyle={&quot;curved&quot;:0,&quot;rounded&quot;:0};" parent="QTBJoDsRQrFREH0yK5H--6" vertex="1">
          <mxGeometry x="45" y="107" width="10" height="50" as="geometry" />
        </mxCell>
        <mxCell id="QTBJoDsRQrFREH0yK5H--35" value="" style="html=1;points=[[0,0,0,0,5],[0,1,0,0,-5],[1,0,0,0,5],[1,1,0,0,-5]];perimeter=orthogonalPerimeter;outlineConnect=0;targetShapes=umlLifeline;portConstraint=eastwest;newEdgeStyle={&quot;curved&quot;:0,&quot;rounded&quot;:0};" parent="QTBJoDsRQrFREH0yK5H--6" vertex="1">
          <mxGeometry x="45" y="270" width="10" height="350" as="geometry" />
        </mxCell>
        <mxCell id="QTBJoDsRQrFREH0yK5H--7" value=":Database" style="shape=umlLifeline;perimeter=lifelinePerimeter;whiteSpace=wrap;html=1;container=1;dropTarget=0;collapsible=0;recursiveResize=0;outlineConnect=0;portConstraint=eastwest;newEdgeStyle={&quot;curved&quot;:0,&quot;rounded&quot;:0};" parent="1" vertex="1">
          <mxGeometry x="961" y="160" width="100" height="640" as="geometry" />
        </mxCell>
        <mxCell id="QTBJoDsRQrFREH0yK5H--23" value="" style="html=1;points=[[0,0,0,0,5],[0,1,0,0,-5],[1,0,0,0,5],[1,1,0,0,-5]];perimeter=orthogonalPerimeter;outlineConnect=0;targetShapes=umlLifeline;portConstraint=eastwest;newEdgeStyle={&quot;curved&quot;:0,&quot;rounded&quot;:0};" parent="QTBJoDsRQrFREH0yK5H--7" vertex="1">
          <mxGeometry x="45" y="117" width="10" height="30" as="geometry" />
        </mxCell>
        <mxCell id="QTBJoDsRQrFREH0yK5H--40" value="" style="html=1;points=[[0,0,0,0,5],[0,1,0,0,-5],[1,0,0,0,5],[1,1,0,0,-5]];perimeter=orthogonalPerimeter;outlineConnect=0;targetShapes=umlLifeline;portConstraint=eastwest;newEdgeStyle={&quot;curved&quot;:0,&quot;rounded&quot;:0};" parent="QTBJoDsRQrFREH0yK5H--7" vertex="1">
          <mxGeometry x="45" y="511" width="10" height="30" as="geometry" />
        </mxCell>
        <mxCell id="QTBJoDsRQrFREH0yK5H--9" value="Access Course" style="html=1;verticalAlign=bottom;endArrow=block;curved=0;rounded=0;entryX=0;entryY=0;entryDx=0;entryDy=5;" parent="1" source="QTBJoDsRQrFREH0yK5H--11" target="QTBJoDsRQrFREH0yK5H--8" edge="1">
          <mxGeometry relative="1" as="geometry">
            <mxPoint x="135" y="225" as="sourcePoint" />
          </mxGeometry>
        </mxCell>
        <mxCell id="QTBJoDsRQrFREH0yK5H--10" value="Redirect Activity" style="html=1;verticalAlign=bottom;endArrow=open;dashed=1;endSize=8;curved=0;rounded=0;exitX=0;exitY=1;exitDx=0;exitDy=-5;" parent="1" source="QTBJoDsRQrFREH0yK5H--8" target="QTBJoDsRQrFREH0yK5H--11" edge="1">
          <mxGeometry relative="1" as="geometry">
            <mxPoint x="135" y="295" as="targetPoint" />
          </mxGeometry>
        </mxCell>
        <mxCell id="QTBJoDsRQrFREH0yK5H--12" value=":Inven!RA" style="shape=umlLifeline;perimeter=lifelinePerimeter;whiteSpace=wrap;html=1;container=1;dropTarget=0;collapsible=0;recursiveResize=0;outlineConnect=0;portConstraint=eastwest;newEdgeStyle={&quot;curved&quot;:0,&quot;rounded&quot;:0};" parent="1" vertex="1">
          <mxGeometry x="320" y="160" width="100" height="640" as="geometry" />
        </mxCell>
        <mxCell id="QTBJoDsRQrFREH0yK5H--14" value="" style="html=1;points=[[0,0,0,0,5],[0,1,0,0,-5],[1,0,0,0,5],[1,1,0,0,-5]];perimeter=orthogonalPerimeter;outlineConnect=0;targetShapes=umlLifeline;portConstraint=eastwest;newEdgeStyle={&quot;curved&quot;:0,&quot;rounded&quot;:0};" parent="QTBJoDsRQrFREH0yK5H--12" vertex="1">
          <mxGeometry x="45" y="90" width="10" height="90" as="geometry" />
        </mxCell>
        <mxCell id="QTBJoDsRQrFREH0yK5H--18" value="Provide Activity" style="html=1;verticalAlign=bottom;endArrow=block;curved=0;rounded=0;entryX=0;entryY=0;entryDx=0;entryDy=5;" parent="1" edge="1">
          <mxGeometry x="0.0049" relative="1" as="geometry">
            <mxPoint x="375" y="262" as="sourcePoint" />
            <mxPoint x="525" y="262" as="targetPoint" />
            <mxPoint as="offset" />
          </mxGeometry>
        </mxCell>
        <mxCell id="QTBJoDsRQrFREH0yK5H--19" value="DeployUrl" style="html=1;verticalAlign=bottom;endArrow=open;dashed=1;endSize=8;curved=0;rounded=0;exitX=0;exitY=1;exitDx=0;exitDy=-5;" parent="1" source="QTBJoDsRQrFREH0yK5H--17" target="QTBJoDsRQrFREH0yK5H--14" edge="1">
          <mxGeometry relative="1" as="geometry">
            <mxPoint x="450" y="295" as="targetPoint" />
          </mxGeometry>
        </mxCell>
        <mxCell id="QTBJoDsRQrFREH0yK5H--15" value="Access Activity" style="html=1;verticalAlign=bottom;endArrow=block;curved=0;rounded=0;entryX=0;entryY=0;entryDx=0;entryDy=5;" parent="1" source="QTBJoDsRQrFREH0yK5H--8" target="QTBJoDsRQrFREH0yK5H--14" edge="1">
          <mxGeometry relative="1" as="geometry">
            <mxPoint x="295" y="235" as="sourcePoint" />
          </mxGeometry>
        </mxCell>
        <mxCell id="QTBJoDsRQrFREH0yK5H--16" value="Redirect Activity" style="html=1;verticalAlign=bottom;endArrow=open;dashed=1;endSize=8;curved=0;rounded=0;exitX=0;exitY=1;exitDx=0;exitDy=-5;" parent="1" source="QTBJoDsRQrFREH0yK5H--14" target="QTBJoDsRQrFREH0yK5H--8" edge="1">
          <mxGeometry relative="1" as="geometry">
            <mxPoint x="295" y="305" as="targetPoint" />
          </mxGeometry>
        </mxCell>
        <mxCell id="QTBJoDsRQrFREH0yK5H--24" value="Save Activity" style="html=1;verticalAlign=bottom;endArrow=block;curved=0;rounded=0;entryX=0;entryY=0;entryDx=0;entryDy=5;" parent="1" source="QTBJoDsRQrFREH0yK5H--26" target="QTBJoDsRQrFREH0yK5H--23" edge="1">
          <mxGeometry x="-0.0028" y="2" relative="1" as="geometry">
            <mxPoint x="695" y="282" as="sourcePoint" />
            <mxPoint as="offset" />
          </mxGeometry>
        </mxCell>
        <mxCell id="QTBJoDsRQrFREH0yK5H--25" value="Activity Instance" style="html=1;verticalAlign=bottom;endArrow=open;dashed=1;endSize=8;curved=0;rounded=0;exitX=0;exitY=1;exitDx=0;exitDy=-5;" parent="1" source="QTBJoDsRQrFREH0yK5H--23" target="QTBJoDsRQrFREH0yK5H--26" edge="1">
          <mxGeometry x="0.0028" y="-2" relative="1" as="geometry">
            <mxPoint x="695" y="352" as="targetPoint" />
            <mxPoint as="offset" />
          </mxGeometry>
        </mxCell>
        <mxCell id="QTBJoDsRQrFREH0yK5H--27" value="Create Activity" style="html=1;verticalAlign=bottom;endArrow=block;curved=0;rounded=0;entryX=0;entryY=0;entryDx=0;entryDy=5;" parent="1" source="QTBJoDsRQrFREH0yK5H--17" target="QTBJoDsRQrFREH0yK5H--26" edge="1">
          <mxGeometry relative="1" as="geometry">
            <mxPoint x="575" y="272" as="sourcePoint" />
          </mxGeometry>
        </mxCell>
        <mxCell id="QTBJoDsRQrFREH0yK5H--28" value="Activity Instance" style="html=1;verticalAlign=bottom;endArrow=open;dashed=1;endSize=8;curved=0;rounded=0;exitX=0;exitY=1;exitDx=0;exitDy=-5;" parent="1" source="QTBJoDsRQrFREH0yK5H--26" target="QTBJoDsRQrFREH0yK5H--17" edge="1">
          <mxGeometry relative="1" as="geometry">
            <mxPoint x="575" y="342" as="targetPoint" />
          </mxGeometry>
        </mxCell>
        <mxCell id="QTBJoDsRQrFREH0yK5H--30" value="Access Activity Page" style="html=1;verticalAlign=bottom;endArrow=block;curved=0;rounded=0;entryX=0;entryY=0;entryDx=0;entryDy=5;" parent="1" source="QTBJoDsRQrFREH0yK5H--11" target="QTBJoDsRQrFREH0yK5H--29" edge="1">
          <mxGeometry relative="1" as="geometry">
            <mxPoint x="455" y="385" as="sourcePoint" />
          </mxGeometry>
        </mxCell>
        <mxCell id="QTBJoDsRQrFREH0yK5H--31" value="Activity Page" style="html=1;verticalAlign=bottom;endArrow=open;dashed=1;endSize=8;curved=0;rounded=0;exitX=0;exitY=1;exitDx=0;exitDy=-5;" parent="1" source="QTBJoDsRQrFREH0yK5H--29" target="QTBJoDsRQrFREH0yK5H--11" edge="1">
          <mxGeometry relative="1" as="geometry">
            <mxPoint x="455" y="455" as="targetPoint" />
          </mxGeometry>
        </mxCell>
        <mxCell id="QTBJoDsRQrFREH0yK5H--33" value="Set Activity Repository" style="html=1;verticalAlign=bottom;endArrow=block;curved=0;rounded=0;entryX=0;entryY=0;entryDx=0;entryDy=5;" parent="1" source="QTBJoDsRQrFREH0yK5H--11" target="QTBJoDsRQrFREH0yK5H--32" edge="1">
          <mxGeometry relative="1" as="geometry">
            <mxPoint x="455" y="415" as="sourcePoint" />
          </mxGeometry>
        </mxCell>
        <mxCell id="QTBJoDsRQrFREH0yK5H--34" value="Redirect to Repository" style="html=1;verticalAlign=bottom;endArrow=open;dashed=1;endSize=8;curved=0;rounded=0;exitX=0;exitY=1;exitDx=0;exitDy=-5;" parent="1" source="QTBJoDsRQrFREH0yK5H--32" target="QTBJoDsRQrFREH0yK5H--11" edge="1">
          <mxGeometry relative="1" as="geometry">
            <mxPoint x="455" y="485" as="targetPoint" />
          </mxGeometry>
        </mxCell>
        <mxCell id="QTBJoDsRQrFREH0yK5H--38" value=":Analytics Service" style="shape=umlLifeline;perimeter=lifelinePerimeter;whiteSpace=wrap;html=1;container=1;dropTarget=0;collapsible=0;recursiveResize=0;outlineConnect=0;portConstraint=eastwest;newEdgeStyle={&quot;curved&quot;:0,&quot;rounded&quot;:0};" parent="1" vertex="1">
          <mxGeometry x="720" y="160" width="100" height="640" as="geometry" />
        </mxCell>
        <mxCell id="QTBJoDsRQrFREH0yK5H--43" value="" style="html=1;points=[[0,0,0,0,5],[0,1,0,0,-5],[1,0,0,0,5],[1,1,0,0,-5]];perimeter=orthogonalPerimeter;outlineConnect=0;targetShapes=umlLifeline;portConstraint=eastwest;newEdgeStyle={&quot;curved&quot;:0,&quot;rounded&quot;:0};" parent="QTBJoDsRQrFREH0yK5H--38" vertex="1">
          <mxGeometry x="45" y="570" width="10" height="30" as="geometry" />
        </mxCell>
        <mxCell id="rUusRCUM9nWNscyzMmrL-2" value="" style="html=1;points=[[0,0,0,0,5],[0,1,0,0,-5],[1,0,0,0,5],[1,1,0,0,-5]];perimeter=orthogonalPerimeter;outlineConnect=0;targetShapes=umlLifeline;portConstraint=eastwest;newEdgeStyle={&quot;curved&quot;:0,&quot;rounded&quot;:0};" vertex="1" parent="QTBJoDsRQrFREH0yK5H--38">
          <mxGeometry x="45" y="290" width="10" height="220" as="geometry" />
        </mxCell>
        <mxCell id="QTBJoDsRQrFREH0yK5H--36" value="setRepository(id, url)" style="html=1;verticalAlign=bottom;endArrow=block;curved=0;rounded=0;entryX=0;entryY=0;entryDx=0;entryDy=5;" parent="1" source="QTBJoDsRQrFREH0yK5H--32" target="QTBJoDsRQrFREH0yK5H--35" edge="1">
          <mxGeometry relative="1" as="geometry">
            <mxPoint x="575" y="435" as="sourcePoint" />
          </mxGeometry>
        </mxCell>
        <mxCell id="QTBJoDsRQrFREH0yK5H--37" value="return" style="html=1;verticalAlign=bottom;endArrow=open;dashed=1;endSize=8;curved=0;rounded=0;exitX=0;exitY=1;exitDx=0;exitDy=-5;" parent="1" source="QTBJoDsRQrFREH0yK5H--35" target="QTBJoDsRQrFREH0yK5H--32" edge="1">
          <mxGeometry relative="1" as="geometry">
            <mxPoint x="575" y="505" as="targetPoint" />
          </mxGeometry>
        </mxCell>
        <mxCell id="QTBJoDsRQrFREH0yK5H--41" value="Save repository URL" style="html=1;verticalAlign=bottom;endArrow=block;curved=0;rounded=0;entryX=0;entryY=0;entryDx=0;entryDy=5;" parent="1" source="QTBJoDsRQrFREH0yK5H--35" target="QTBJoDsRQrFREH0yK5H--40" edge="1">
          <mxGeometry relative="1" as="geometry">
            <mxPoint x="814" y="445" as="sourcePoint" />
          </mxGeometry>
        </mxCell>
        <mxCell id="QTBJoDsRQrFREH0yK5H--42" value="return" style="html=1;verticalAlign=bottom;endArrow=open;dashed=1;endSize=8;curved=0;rounded=0;exitX=0;exitY=1;exitDx=0;exitDy=-5;" parent="1" source="QTBJoDsRQrFREH0yK5H--40" target="QTBJoDsRQrFREH0yK5H--35" edge="1">
          <mxGeometry relative="1" as="geometry">
            <mxPoint x="814" y="515" as="targetPoint" />
          </mxGeometry>
        </mxCell>
        <mxCell id="QTBJoDsRQrFREH0yK5H--44" value="Start Collection" style="html=1;verticalAlign=bottom;endArrow=block;curved=0;rounded=0;entryX=0;entryY=0;entryDx=0;entryDy=5;" parent="1" source="QTBJoDsRQrFREH0yK5H--35" target="QTBJoDsRQrFREH0yK5H--43" edge="1">
          <mxGeometry relative="1" as="geometry">
            <mxPoint x="695" y="475" as="sourcePoint" />
          </mxGeometry>
        </mxCell>
        <mxCell id="QTBJoDsRQrFREH0yK5H--45" value="return" style="html=1;verticalAlign=bottom;endArrow=open;dashed=1;endSize=8;curved=0;rounded=0;exitX=0;exitY=1;exitDx=0;exitDy=-5;" parent="1" source="QTBJoDsRQrFREH0yK5H--43" target="QTBJoDsRQrFREH0yK5H--35" edge="1">
          <mxGeometry relative="1" as="geometry">
            <mxPoint x="695" y="545" as="targetPoint" />
          </mxGeometry>
        </mxCell>
        <mxCell id="QTBJoDsRQrFREH0yK5H--46" value=":Git Service" style="shape=umlLifeline;perimeter=lifelinePerimeter;whiteSpace=wrap;html=1;container=1;dropTarget=0;collapsible=0;recursiveResize=0;outlineConnect=0;portConstraint=eastwest;newEdgeStyle={&quot;curved&quot;:0,&quot;rounded&quot;:0};" parent="1" vertex="1">
          <mxGeometry x="840" y="160" width="100" height="640" as="geometry" />
        </mxCell>
        <mxCell id="rUusRCUM9nWNscyzMmrL-3" value="" style="html=1;points=[[0,0,0,0,5],[0,1,0,0,-5],[1,0,0,0,5],[1,1,0,0,-5]];perimeter=orthogonalPerimeter;outlineConnect=0;targetShapes=umlLifeline;portConstraint=eastwest;newEdgeStyle={&quot;curved&quot;:0,&quot;rounded&quot;:0};" vertex="1" parent="QTBJoDsRQrFREH0yK5H--46">
          <mxGeometry x="45" y="313" width="10" height="140" as="geometry" />
        </mxCell>
        <mxCell id="rUusRCUM9nWNscyzMmrL-1" value="canStartCollection(url)" style="html=1;verticalAlign=bottom;endArrow=block;curved=0;rounded=0;" edge="1" parent="1">
          <mxGeometry relative="1" as="geometry">
            <mxPoint x="655" y="460" as="sourcePoint" />
            <mxPoint x="765" y="460" as="targetPoint" />
          </mxGeometry>
        </mxCell>
        <mxCell id="rUusRCUM9nWNscyzMmrL-4" value="accepts(url)" style="html=1;verticalAlign=bottom;endArrow=block;curved=0;rounded=0;" edge="1" parent="1">
          <mxGeometry relative="1" as="geometry">
            <mxPoint x="775" y="479.5" as="sourcePoint" />
            <mxPoint x="885" y="479.5" as="targetPoint" />
          </mxGeometry>
        </mxCell>
      </root>
    </mxGraphModel>
  </diagram>
</mxfile>
